<svg width="24" height="20" viewBox="0 0 24 20" fill="none" xmlns="http://www.w3.org/2000/svg">
<path d="M19.2 8.88889C19.2 7.82333 18.384 6.93222 17.3028 6.71778C17.7348 6.05 18 5.27778 18 4.44444C18 1.99333 15.8472 0 13.2 0C11.3796 0 9.8148 0.952222 9 2.33778C8.1852 0.952222 6.6204 0 4.8 0C2.1528 0 0 1.99333 0 4.44444C0 5.44667 0.3744 6.36333 0.9804 7.10667C0.3888 7.51222 0 8.15778 0 8.88889V17.7778C0 19.0033 1.0764 20 2.4 20H16.8C18.1236 20 19.2 19.0033 19.2 17.7778V14.8467L24 17.0689V9.29111L19.2 11.5133V8.88889ZM13.2 2.22222C14.5236 2.22222 15.6 3.21889 15.6 4.44444C15.6 5.67 14.5236 6.66667 13.2 6.66667C11.8764 6.66667 10.8 5.67 10.8 4.44444C10.8 3.21889 11.8764 2.22222 13.2 2.22222ZM4.8 2.22222C6.1236 2.22222 7.2 3.21889 7.2 4.44444C7.2 5.67 6.1236 6.66667 4.8 6.66667C3.4764 6.66667 2.4 5.67 2.4 4.44444C2.4 3.21889 3.4764 2.22222 4.8 2.22222ZM2.4 17.7778V8.88889H16.8L16.8024 17.7778H2.4Z" fill="#081A45"/>
</svg>
