<svg width="148" height="27" viewBox="0 0 148 27" fill="none" xmlns="http://www.w3.org/2000/svg">
<path d="M4.15234 26H0.900391V6.98047H4.15234V26ZM0.636719 1.93555C0.636719 1.4082 0.794922 0.962891 1.11133 0.599609C1.43945 0.236328 1.91992 0.0546875 2.55273 0.0546875C3.18555 0.0546875 3.66602 0.236328 3.99414 0.599609C4.32227 0.962891 4.48633 1.4082 4.48633 1.93555C4.48633 2.46289 4.32227 2.90234 3.99414 3.25391C3.66602 3.60547 3.18555 3.78125 2.55273 3.78125C1.91992 3.78125 1.43945 3.60547 1.11133 3.25391C0.794922 2.90234 0.636719 2.46289 0.636719 1.93555ZM17.4238 14.5918C14.5293 13.7598 12.4199 12.7402 11.0957 11.5332C9.7832 10.3145 9.12695 8.81445 9.12695 7.0332C9.12695 5.01758 9.92969 3.35352 11.5352 2.04102C13.1523 0.716797 15.25 0.0546875 17.8281 0.0546875C19.5859 0.0546875 21.1504 0.394531 22.5215 1.07422C23.9043 1.75391 24.9707 2.69141 25.7207 3.88672C26.4824 5.08203 26.8633 6.38867 26.8633 7.80664H23.4707C23.4707 6.25977 22.9785 5.04688 21.9941 4.16797C21.0098 3.27734 19.6211 2.83203 17.8281 2.83203C16.1641 2.83203 14.8633 3.20117 13.9258 3.93945C13 4.66602 12.5371 5.67969 12.5371 6.98047C12.5371 8.02344 12.9766 8.9082 13.8555 9.63477C14.7461 10.3496 16.252 11.0059 18.373 11.6035C20.5059 12.2012 22.1699 12.8633 23.3652 13.5898C24.5723 14.3047 25.4629 15.1426 26.0371 16.1035C26.623 17.0645 26.916 18.1953 26.916 19.4961C26.916 21.5703 26.1074 23.2344 24.4902 24.4883C22.873 25.7305 20.7109 26.3516 18.0039 26.3516C16.2461 26.3516 14.6055 26.0176 13.082 25.3496C11.5586 24.6699 10.3809 23.7441 9.54883 22.5723C8.72852 21.4004 8.31836 20.0703 8.31836 18.582H11.7109C11.7109 20.1289 12.2793 21.3535 13.416 22.2559C14.5645 23.1465 16.0938 23.5918 18.0039 23.5918C19.7852 23.5918 21.1504 23.2285 22.0996 22.502C23.0488 21.7754 23.5234 20.7852 23.5234 19.5312C23.5234 18.2773 23.084 17.3105 22.2051 16.6309C21.3262 15.9395 19.7324 15.2598 17.4238 14.5918ZM34.6328 15.9805V26H31.2578V0.40625H40.6973C43.498 0.40625 45.6895 1.12109 47.2715 2.55078C48.8652 3.98047 49.6621 5.87305 49.6621 8.22852C49.6621 10.7129 48.8828 12.6289 47.3242 13.9766C45.7773 15.3125 43.5566 15.9805 40.6621 15.9805H34.6328ZM34.6328 13.2207H40.6973C42.502 13.2207 43.8848 12.7988 44.8457 11.9551C45.8066 11.0996 46.2871 9.86914 46.2871 8.26367C46.2871 6.74023 45.8066 5.52148 44.8457 4.60742C43.8848 3.69336 42.5664 3.21875 40.8906 3.18359H34.6328V13.2207ZM68.4355 14.1699H57.3438V23.2402H70.2285V26H53.9688V0.40625H70.0527V3.18359H57.3438V11.4102H68.4355V14.1699ZM88.8965 14.1699H77.8047V23.2402H90.6895V26H74.4297V0.40625H90.5137V3.18359H77.8047V11.4102H88.8965V14.1699ZM113.717 17.8789C113.4 20.5859 112.398 22.6777 110.711 24.1543C109.035 25.6191 106.803 26.3516 104.014 26.3516C100.99 26.3516 98.5645 25.2676 96.7363 23.0996C94.9199 20.9316 94.0117 18.0312 94.0117 14.3984V11.9375C94.0117 9.55859 94.4336 7.4668 95.2773 5.66211C96.1328 3.85742 97.3398 2.47461 98.8984 1.51367C100.457 0.541016 102.262 0.0546875 104.312 0.0546875C107.031 0.0546875 109.211 0.816406 110.852 2.33984C112.492 3.85156 113.447 5.94922 113.717 8.63281H110.324C110.031 6.59375 109.393 5.11719 108.408 4.20312C107.436 3.28906 106.07 2.83203 104.312 2.83203C102.156 2.83203 100.463 3.62891 99.2324 5.22266C98.0137 6.81641 97.4043 9.08398 97.4043 12.0254V14.5039C97.4043 17.2812 97.9844 19.4902 99.1445 21.1309C100.305 22.7715 101.928 23.5918 104.014 23.5918C105.889 23.5918 107.324 23.1699 108.32 22.3262C109.328 21.4707 109.996 19.9883 110.324 17.8789H113.717ZM138.01 26H134.617V14.1699H121.715V26H118.34V0.40625H121.715V11.4102H134.617V0.40625H138.01V26ZM147.625 26H144.25V0.40625H147.625V26Z" fill="#00AAE7"/>
</svg>
