<?xml version="1.0" encoding="iso-8859-1"?>
<!-- Generator: Adobe Illustrator 19.0.0, SVG Export Plug-In . SVG Version: 6.00 Build 0)  -->
<svg version="1.1" id="Capa_1" xmlns="http://www.w3.org/2000/svg" xmlns:xlink="http://www.w3.org/1999/xlink" x="0px" y="0px"
	 viewBox="0 0 323.228 323.228" style="enable-background:new 0 0 323.228 323.228;" xml:space="preserve">
<g>
	<path style="fill:#FFE749;" d="M37.614,306.148c-0.4-0.4-0.4-0.4-0.8-0.4l-8.4,2.4l-6.8,1.6l3.2-14.8c0-0.4,0-0.8,0-0.8l-8.4-12.4
		l15.2-1.2c0.4,0,0.8,0,0.8-0.4l9.2-12l6,14c0,0.4,0.4,0.4,0.8,0.8l14,5.2l-11.6,9.6c-0.4,0.4-0.4,0.4-0.4,0.8l-0.4,15.2
		L37.614,306.148z"/>
	<path style="fill:#FFE749;" d="M199.214,316.948c-69.6,0-130.8-46.4-150-113.2c-23.2-82.8,25.2-168.4,107.6-191.6
		c12-3.2,24.4-5.2,36.4-5.6h5.2c6.4,0,12.8,0.4,18.8,1.2l10,1.2l-8,6c-22.8,16.8-40.4,39.6-51.2,65.6c-12,28.8-14,61.2-5.6,91.6
		c16,57.6,67.2,98.4,130.4,104.4l10,0.8l-7.6,6C268.014,304.948,234.014,316.948,199.214,316.948L199.214,316.948z"/>
	<path style="fill:#FFE749;" d="M244.814,209.348c-0.4-0.4-0.4-0.4-0.8-0.4l-16-0.4l-2.4-0.4l-2.4-3.6l1.2-2.4l8-13.6l0,0
		c0-0.4,0-0.8,0-1.2l-4.8-16.4l2.4-5.6l18.8,4.4h0.8c0.4,0,0.4,0,0.8-0.4l14-9.6l5.6-0.4l2,20c0,0.4,0.4,0.8,0.4,0.8l14,10.8
		l0.8,4.8l-2.8,1.6l-14.8,6.4c-0.4,0-0.4,0.4-0.8,0.8l-5.6,15.6l-4,4.4L244.814,209.348z"/>
	<path style="fill:#FFE749;" d="M266.414,61.748c0-0.4,0-0.8-0.4-0.8l-11.2-10l14-5.2c0.4,0,0.4-0.4,0.8-0.8l6-14l9.2,12
		c0.4,0.4,0.4,0.4,0.8,0.4l15.2,1.2l-8.8,13.2c0,0.4,0,0.8,0,0.8l3.2,14.8l-14.4-4h-0.4c-0.4,0-0.4,0-0.8,0l-12.8,7.6
		L266.414,61.748z"/>
</g>
<path style="fill:#603416;" d="M193.614,10.548c-83.6,2.8-148.8,73.2-146,156.4s73.2,148.8,156.4,146c24.4-0.8,48-7.6,68.8-19.6
	c6.8-4,13.2-8.4,19.6-13.2c-28.8-2.8-56.4-13.2-80-30c-54-38.8-73.6-110-48-171.2c11.2-26.8,29.2-50,52.4-67.6
	C209.214,10.548,201.614,10.148,193.614,10.548z M281.614,45.748l-5.2-6.4l-3.2,7.6l0,0c-0.4,1.2-1.6,2.4-3.2,2.8l-7.6,2.8l6,5.2
	c1.2,0.8,1.6,2.4,1.6,3.6l0.4,8.4l7.2-4c1.2-0.8,2.8-1.2,4.4-0.8l8,2.4l-2-8l0,0c-0.4-1.2,0-2.8,0.8-4l4.8-6.8l-8.4-0.8
	C284.014,47.348,282.414,46.948,281.614,45.748z M283.214,30.948l5.2,6.8l8.4,0.8l0,0c4.8,0.4,8.4,4.8,8.4,9.6
	c0,0.8-0.4,1.6-0.4,2.4c0,0.4-0.4,0.8-0.8,1.6l-0.4,0.4l-0.4,0.4l-4.4,6.8l2,8.4l0,0c0.8,4.8-2.4,9.6-7.2,10.4h-0.4
	c-0.8,0-1.6,0-2,0l0,0c-0.8,0-1.2,0-2-0.4l0,0l-8-2.4l-7.6,4.4l-0.4,0.4c-4.4,2.4-9.6,0.8-12-3.2c-0.4-0.8-0.8-1.2-0.8-2v-0.4
	c0-0.4,0-0.8-0.4-1.2c0-0.4,0-0.8,0-0.8v-0.4l-0.4-8l-6-6c-3.6-3.2-4-8.8-0.8-12.8c0.4-0.8,1.2-1.2,2-1.6c0.8-0.4,1.6-0.8,2.4-1.2
	l7.6-2.8l3.2-8c2-4.4,7.2-6.8,11.6-4.8l0,0c0.8,0.4,1.2,0.8,2,1.2l0.4,0.4C282.414,29.748,282.814,30.148,283.214,30.948
	L283.214,30.948z M248.414,163.348l11.2-7.6l0,0c4.8-3.2,11.6-2,14.8,2.8c1.2,1.6,1.6,3.2,2,5.2l1.2,13.6l10.4,8
	c0.8,0.4,1.6,1.2,2.4,2l0,0c4,4.4,3.2,11.2-1.6,15.2c-0.8,0.8-1.6,1.2-2.4,1.6l-12.8,5.2l-4.8,12.8l0,0c-0.4,0.8-0.8,1.6-1.2,2.4
	c-0.4,0.8-1.2,1.6-1.6,2c-4.4,4-11.2,3.6-15.2-0.8l0,0l-9.2-10.4l-13.2-0.4c-2,0-3.6-0.4-5.6-1.6l0,0c-5.2-3.2-6.8-9.6-3.6-14.8l0,0
	l7.2-11.6l-4-13.2l0,0c-1.2-4.4,0.4-9.2,4.4-12l0.4-0.4c2.4-1.6,5.2-2,8-1.2l0,0L248.414,163.348z M265.614,164.548l-13.2,8.8
	c-1.2,0.8-2.8,1.2-4.4,0.8l-15.2-3.6h-0.4l0,0l0,0v0.4l4.4,15.2c0.4,1.6,0,3.2-0.8,4.4l-8,13.2c0,0,0,0,0,0.4l0,0h0.4l15.6,0.4
	c1.6,0,2.8,0.8,3.6,1.6l0,0l10.4,12h0.4h0.4l0,0l0,0v-0.4l5.2-14.8c0.4-1.2,1.6-2.4,2.8-3.2l0,0l14.8-6l0,0c0,0,0,0,0-0.4l0,0l0,0
	l0,0v-0.4l-12-9.2c-1.2-0.8-2-2.4-2-3.6l-1.6-16c0,0,0,0,0-0.4L265.614,164.548L265.614,164.548L265.614,164.548z M35.614,282.548
	l5.2-6.4l3.2,7.6l0,0c0.4,1.2,1.6,2.4,3.2,2.8l8,2.8l-6.4,5.6c-1.2,0.8-1.6,2.4-2,3.6l-0.4,8.4l-6.8-4c-1.2-0.8-2.8-1.2-4.4-0.8
	l-8,2.4l2-8l0,0c0.4-1.2,0-2.8-0.8-4l-4.8-6.8l8.4-0.8C33.214,284.548,34.814,283.748,35.614,282.548z M34.014,267.748l-5.2,6.8
	l-8.4,0.8l0,0c-4.8,0.4-8.4,4.8-8.4,9.6c0,0.8,0.4,1.6,0.4,2.4c0,0.4,0.4,0.8,0.8,1.6l0.4,0.4l0.4,0.4l4.4,6.8l-2,8.4l0,0
	c-1.2,4.8,2,9.6,6.8,10.8h0.4c0.8,0,1.6,0,2,0l0,0c0.8,0,1.2,0,2-0.4l0,0l8-2.4l7.2,4.4l0.4,0.4c4.4,2.4,9.6,0.8,12-3.2
	c0.4-0.8,0.8-1.2,0.8-2v-0.4c0-0.4,0-0.8,0-1.2c0-0.4,0-0.8,0-0.8v-0.4l0.4-8l6.4-5.6c3.6-3.2,4-8.8,0.8-12.8
	c-0.4-0.8-1.2-1.2-2-1.6s-1.6-0.8-2-1.2l-7.6-2.8l-3.2-8c-2-4.4-7.2-6.4-11.6-4.4c-0.8,0.4-1.2,0.8-2,1.2l-0.4,0.4
	C34.814,266.948,34.414,267.348,34.014,267.748L34.014,267.748z M154.814,6.148c25.2-7.2,51.6-8,76.8-2.8c2.8,0.4,4.8,3.2,4,6
	c-0.4,1.6-1.2,2.8-2.4,3.6l0,0c-26.4,16.8-47.2,41.2-59.2,70c-23.6,56.8-5.2,122.8,44.8,158.8c25.2,18.4,55.6,28.4,87.2,28.8
	c2.8,0,5.2,2.4,5.2,5.2c0,1.6-0.8,2.8-1.6,3.6l0,0c-65.2,61.2-167.6,58-228.8-7.2s-58-167.6,7.2-228.8
	C107.214,26.148,130.014,12.948,154.814,6.148L154.814,6.148z M48.414,294.948L48.414,294.948 M268.414,57.748L268.414,57.748"/>
<g>
</g>
<g>
</g>
<g>
</g>
<g>
</g>
<g>
</g>
<g>
</g>
<g>
</g>
<g>
</g>
<g>
</g>
<g>
</g>
<g>
</g>
<g>
</g>
<g>
</g>
<g>
</g>
<g>
</g>
</svg>
