<svg width="45" height="45" viewBox="0 0 45 45" fill="none" xmlns="http://www.w3.org/2000/svg">
<path d="M18.75 33.75C22.2113 33.75 25.3931 32.5594 27.9319 30.585L36.1744 38.8275L38.8256 36.1763L30.5831 27.9338C32.5594 25.3931 33.75 22.2113 33.75 18.75C33.75 10.4794 27.0206 3.75 18.75 3.75C10.4794 3.75 3.75 10.4794 3.75 18.75C3.75 27.0206 10.4794 33.75 18.75 33.75ZM18.75 7.5C24.9544 7.5 30 12.5456 30 18.75C30 24.9544 24.9544 30 18.75 30C12.5456 30 7.5 24.9544 7.5 18.75C7.5 12.5456 12.5456 7.5 18.75 7.5Z" fill="#081A45"/>
</svg>
